<svg version="1.1" id="Layer_1" xmlns="http://www.w3.org/2000/svg" xmlns:xlink="http://www.w3.org/1999/xlink" x="0px" y="0px"
	 width="100%" viewBox="0 0 630 630" enable-background="new 0 0 630 630" xml:space="preserve">
<path fill="#F6F6F6" opacity="1.000000" stroke="none" 
	d="
M0.999999,351.000000 
	C1.000000,327.979095 1.000000,304.958221 1.364442,281.777863 
	C2.485081,278.032776 3.239988,274.446899 3.997707,270.861603 
	C7.160910,255.894287 9.614456,240.732483 13.649683,226.004059 
	C20.249908,201.913513 30.721039,179.308853 43.083057,157.646286 
	C56.018703,134.978500 71.894844,114.407906 90.022865,95.701180 
	C98.565666,86.885674 108.158508,79.063118 117.498726,71.050797 
	C131.141129,59.347939 146.036758,49.358643 161.784119,40.767422 
	C181.971725,29.753742 202.895279,20.397627 225.061310,13.903714 
	C242.611267,8.762164 260.346344,4.786747 278.550354,2.923852 
	C279.423370,2.834512 280.185974,1.665976 281.000000,1.000003 
	C304.020905,1.000000 327.041779,1.000000 350.222137,1.364441 
	C353.967224,2.485080 357.553131,3.239976 361.138428,3.997701 
	C376.105743,7.160911 391.267578,9.614470 405.996002,13.649697 
	C430.086517,20.249912 452.691162,30.721050 474.353699,43.083050 
	C497.021484,56.018703 517.592102,71.894844 536.298828,90.022850 
	C545.114319,98.565643 552.936951,108.158447 560.949219,117.498680 
	C572.652039,131.141144 582.641357,146.036743 591.232544,161.784119 
	C602.246216,181.971756 611.602295,202.895325 618.096313,225.061325 
	C623.237915,242.611252 627.212952,260.346405 629.076233,278.550323 
	C629.165527,279.423370 630.334045,280.185974 631.000000,281.000000 
	C631.000000,304.020905 631.000000,327.041779 630.635498,350.222137 
	C629.514893,353.967224 628.760010,357.553131 628.002319,361.138458 
	C624.839111,376.105743 622.385376,391.267548 618.350159,405.995972 
	C611.750061,430.086548 601.278931,452.691162 588.916931,474.353699 
	C575.981262,497.021454 560.105225,517.592163 541.977112,536.298828 
	C533.434326,545.114380 523.841553,552.936890 514.501282,560.949280 
	C500.858856,572.652100 485.963226,582.641357 470.215912,591.232605 
	C450.028259,602.246277 429.104736,611.602295 406.938721,618.096313 
	C389.388824,623.237976 371.653625,627.212952 353.449677,629.076172 
	C352.576630,629.165527 351.814056,630.334045 351.000000,631.000000 
	C327.979095,631.000000 304.958221,631.000000 281.777863,630.635498 
	C278.032776,629.514832 274.446808,628.760071 270.861481,628.002319 
	C255.894196,624.839111 240.732468,622.385437 226.004028,618.350281 
	C201.913467,611.750061 179.308868,601.278809 157.646164,588.916931 
	C134.978287,575.981384 114.407837,560.105042 95.701073,541.977051 
	C86.885536,533.434265 79.063049,523.841431 71.050728,514.501160 
	C59.347870,500.858795 49.358597,485.963135 40.767380,470.215820 
	C29.753714,450.028198 20.397610,429.104675 13.903705,406.938660 
	C8.762144,389.388733 4.786754,371.653656 2.923843,353.449646 
	C2.834502,352.576630 1.665969,351.814026 0.999999,351.000000 
M378.817200,450.923370 
	C380.209961,451.065582 381.602692,451.207794 383.076721,451.358307 
	C383.076721,454.863129 383.072662,457.856537 383.077484,460.849976 
	C383.096588,472.706360 387.766357,476.530365 399.874054,474.440521 
	C399.874054,472.350342 399.874054,470.229858 399.874054,468.137421 
	C391.608185,466.465820 391.608185,466.465820 391.607910,457.819580 
	C391.607819,455.704834 391.607880,453.590088 391.607880,451.203552 
	C394.673859,451.041748 397.240356,450.906311 399.617126,450.780884 
	C399.617126,448.319855 399.617126,446.398285 399.617126,444.319763 
	C396.849304,444.171722 394.399841,444.040710 391.741577,443.898529 
	C391.486542,441.233002 391.250549,438.766418 390.872803,434.818176 
	C385.919159,440.391663 381.987701,444.815033 377.241821,449.088654 
	C376.870636,447.707153 376.499451,446.325653 376.121429,444.918793 
	C373.666504,444.714172 371.425140,444.527344 369.238220,444.345032 
	C367.528076,437.212006 373.440063,439.634125 376.280823,438.549500 
	C376.280823,436.306946 376.280823,434.399170 376.280823,432.535919 
	C364.970062,431.072205 362.785828,432.648224 359.691101,444.354675 
	C358.306915,444.574097 356.860962,444.803345 355.250183,445.058685 
	C355.250183,447.119507 355.250183,449.071930 355.250183,451.175659 
	C356.942139,451.505707 358.491180,451.807861 360.445374,452.189056 
	C360.445374,459.857391 360.445374,467.266968 360.445374,474.685913 
	C363.482422,474.685913 366.038544,474.685913 368.987610,474.685913 
	C368.987610,466.933807 368.987610,459.516663 368.987610,452.286957 
	C372.277161,451.645996 375.140411,451.088135 378.817200,450.923370 
M305.800201,342.679016 
	C319.959320,356.798706 334.152435,370.884583 348.254395,385.061096 
	C351.916168,388.742218 356.049072,390.780487 361.250885,389.667419 
	C366.010864,388.648895 369.388184,385.707825 370.768036,381.050385 
	C372.307953,375.852631 370.974701,371.260834 367.043182,367.353973 
	C351.321991,351.731567 335.627319,336.081848 320.045868,320.320587 
	C318.639130,318.897614 318.113983,316.603088 317.179443,314.713287 
	C319.153473,315.636200 321.561829,316.114624 323.033081,317.552124 
	C335.190430,329.430145 347.173798,341.486267 359.210754,353.487518 
	C364.521210,358.782166 369.777344,364.132965 375.164642,369.348236 
	C378.947571,373.010345 383.326721,375.114014 388.762573,373.411591 
	C398.782288,370.273621 401.229462,358.935242 393.394501,351.047302 
	C377.305786,334.849854 361.077148,318.791534 344.907379,302.674591 
	C343.137115,300.910126 341.220703,299.260223 339.674286,297.316681 
	C338.891235,296.332520 338.783661,294.810974 338.370697,293.532379 
	C339.789856,293.819122 341.285919,293.918793 342.600647,294.459442 
	C343.454224,294.810394 344.042450,295.805450 344.751007,296.510468 
	C359.634766,311.320923 374.544067,326.105927 389.383636,340.960510 
	C392.771210,344.351501 396.622955,346.290924 401.451416,345.550476 
	C406.481903,344.779053 410.119965,341.935608 411.657135,337.090729 
	C413.427490,331.510925 411.790985,326.767639 407.586426,322.587494 
	C379.223816,294.389618 350.962158,266.090271 322.634277,237.857407 
	C316.005920,231.251312 308.880371,231.334061 302.124939,238.031723 
	C292.304352,247.768372 282.551941,257.573792 272.753571,267.332916 
	C264.208893,275.843414 250.313492,273.443542 245.089615,262.574493 
	C241.803040,255.736221 243.141373,248.330276 248.996460,242.464523 
	C266.537354,224.891617 283.966400,207.200119 301.839203,189.969940 
	C307.039948,184.956207 313.580475,181.331100 319.515625,177.081696 
	C320.312500,176.511169 321.161011,176.012802 321.985626,175.481018 
	C311.737488,175.058304 301.725281,175.127686 291.809082,176.138626 
	C282.130676,177.125320 272.689972,179.671860 265.474976,186.801086 
	C245.086868,206.946869 224.979263,227.378082 204.464783,247.393066 
	C200.329727,251.427444 199.334305,255.427551 200.414047,260.692413 
	C203.447571,275.483765 211.135101,287.794617 220.635437,299.155029 
	C222.707962,301.633331 224.998047,303.929657 227.215363,306.339539 
	C232.263931,301.534332 236.757263,297.075287 241.451538,292.838867 
	C246.547043,288.240356 252.626160,287.515839 258.681396,290.174408 
	C265.045166,292.968414 268.902802,298.042816 269.177521,305.312836 
	C269.243225,307.051666 269.187256,308.795105 269.187256,310.682861 
	C276.441040,309.476440 282.237091,311.261566 286.693146,316.588196 
	C291.248505,322.033539 291.283783,328.277008 289.069672,334.975159 
	C296.058044,334.645874 301.163086,337.384308 305.800201,342.679016 
M338.663025,247.836731 
	C359.862518,269.201721 381.062012,290.566742 402.201111,311.870850 
	C413.549683,302.419647 432.008270,276.011810 436.314178,263.426025 
	C436.904663,261.700073 437.773682,259.888672 437.685303,258.159210 
	C437.585632,256.208740 437.110229,253.748779 435.836182,252.465637 
	C413.891479,230.364471 391.922424,208.284134 369.686768,186.476532 
	C357.874634,174.891739 343.807800,172.335892 328.250641,177.936157 
	C318.508667,181.443069 310.247040,187.293137 302.975037,194.481964 
	C286.393372,210.873917 269.981232,227.437378 253.506668,243.937607 
	C252.448761,244.997162 251.339066,246.030273 250.436050,247.214874 
	C246.202408,252.768646 246.920532,260.291504 252.045258,264.769165 
	C257.460510,269.500671 264.873413,269.129730 269.995453,263.997498 
	C279.877777,254.095581 289.762817,244.195160 299.751526,234.401016 
	C307.488373,226.814850 317.280548,226.801285 325.071320,234.282913 
	C329.515411,238.550659 333.804230,242.980133 338.663025,247.836731 
M382.477051,193.022934 
	C401.789276,212.326385 421.089661,231.641708 440.420349,250.926620 
	C446.944580,257.435333 452.212463,257.387817 458.832458,250.879929 
	C460.732086,249.012436 462.616608,247.129456 464.502838,245.248352 
	C472.042999,237.728638 472.051605,232.964920 464.508972,225.411438 
	C444.273865,205.147278 424.032684,184.889191 403.791351,164.631256 
	C398.848846,159.684738 394.019531,154.616379 388.912842,149.845154 
	C384.057892,145.309158 378.147858,145.516769 373.350708,150.117050 
	C370.347687,152.996872 367.417664,155.959183 364.565765,158.988831 
	C359.406952,164.469086 359.403961,169.900085 364.642853,175.245224 
	C370.352966,181.071060 376.193420,186.769165 382.477051,193.022934 
M246.968185,149.383545 
	C238.733124,157.629181 230.498245,165.875000 222.262924,174.120377 
	C205.204254,191.199890 188.120270,208.254227 171.100449,225.372360 
	C165.295944,231.210403 165.321198,236.455582 170.986954,242.330475 
	C173.297791,244.726624 175.678284,247.056396 178.053436,249.389542 
	C184.754944,255.972565 189.910889,255.984253 196.498291,249.409744 
	C208.517136,237.414429 220.506317,225.389328 232.534637,213.403549 
	C245.152252,200.830627 257.801483,188.289413 270.436554,175.734024 
	C278.065247,168.153442 278.137085,163.412750 270.752411,155.864548 
	C268.540680,153.603836 266.419128,151.250244 264.135284,149.065674 
	C258.482056,143.658127 253.581375,143.637314 246.968185,149.383545 
M219.023865,324.822144 
	C219.105789,331.825806 221.679962,336.216370 227.200485,338.251923 
	C233.005447,340.392303 237.864365,338.680756 242.096710,334.352936 
	C248.138199,328.175110 254.334076,322.148560 260.401428,315.995667 
	C266.111938,310.204651 266.573334,302.643311 261.647522,297.286377 
	C256.541748,291.733734 248.621231,291.601837 242.576447,297.347656 
	C235.953934,303.642609 229.487503,310.115692 223.226456,316.768463 
	C221.375580,318.735138 220.450272,321.572876 219.023865,324.822144 
M255.514801,327.014801 
	C251.628204,330.904144 247.609573,334.671814 243.887192,338.712463 
	C238.815781,344.217438 238.977890,351.608765 244.015656,356.671997 
	C248.760193,361.440521 256.501099,361.915466 261.626587,357.136749 
	C268.931763,350.325867 276.042664,343.280701 282.871277,335.993317 
	C287.818420,330.713898 287.270447,322.764679 282.269897,317.981628 
	C277.432953,313.355072 269.367676,313.505981 264.169678,318.411499 
	C261.383667,321.040771 258.729218,323.809570 255.514801,327.014801 
M275.321411,349.815308 
	C271.908752,353.233154 268.372314,356.537628 265.112396,360.095459 
	C260.217438,365.437805 260.451599,373.137665 265.441620,378.062256 
	C270.392426,382.948151 278.164642,383.070618 283.439697,378.033905 
	C289.220154,372.514679 294.868286,366.846191 300.371460,361.050323 
	C305.470245,355.680328 305.092255,347.833649 299.784058,342.670929 
	C294.930969,337.950836 286.956726,338.187042 281.765808,343.249603 
	C279.739594,345.225739 277.800201,347.290833 275.321411,349.815308 
M285.933807,398.463959 
	C292.600555,404.566956 299.227966,404.617340 305.694061,398.449738 
	C309.539124,394.782135 313.359955,391.067505 316.922607,387.130524 
	C322.037964,381.477722 321.765594,373.770538 316.554352,368.805359 
	C311.484222,363.974731 304.036072,363.996948 298.599976,369.060120 
	C294.833862,372.567932 291.254791,376.279297 287.645905,379.952576 
	C282.018738,385.680115 281.410950,390.799896 285.933807,398.463959 
M83.899261,473.254761 
	C86.516624,474.031097 89.133980,474.807465 92.609978,475.838501 
	C92.609978,468.662048 92.609978,462.983917 92.609978,455.967957 
	C96.362617,461.121857 99.769302,464.865814 102.078186,469.195221 
	C105.376694,475.380188 110.236748,475.909393 116.646683,474.507538 
	C111.692314,467.625580 106.898064,460.966034 102.073242,454.264008 
	C106.532791,447.887024 110.773544,441.822937 115.116745,435.612335 
	C108.644981,433.847565 104.229340,435.237427 101.138992,441.043121 
	C99.054947,444.958282 95.980865,448.346436 93.349670,451.970367 
	C92.966782,451.824707 92.583900,451.679016 92.201019,451.533356 
	C92.201019,446.154694 92.201019,440.776001 92.201019,435.287354 
	C89.220169,435.287354 86.803497,435.287354 83.879547,435.287354 
	C83.879547,447.778015 83.879547,460.038483 83.899261,473.254761 
M341.862885,384.805664 
	C330.775208,373.909058 319.687500,363.012482 308.555695,352.072510 
	C307.783295,355.133545 307.081482,357.914795 306.341858,360.845886 
	C314.357300,361.084900 320.412659,364.372101 323.498505,371.748016 
	C327.546356,381.423248 322.272095,388.289001 315.796387,394.459839 
	C323.922546,405.565094 331.701721,408.655151 339.125702,403.900757 
	C345.019135,400.126617 346.329224,392.460907 341.862885,384.805664 
M135.309769,443.334412 
	C127.798828,443.615784 122.088081,446.741364 119.688927,454.149902 
	C117.595146,460.615509 118.580154,466.822784 123.759926,471.540955 
	C129.360672,476.642548 135.809265,477.346954 142.648346,473.817352 
	C143.299881,473.481079 144.289902,473.581268 145.065628,473.746826 
	C147.237961,474.210297 149.380341,474.814270 151.632217,475.387695 
	C151.632217,464.352417 151.632217,454.330780 151.632217,443.425690 
	C148.753418,444.321625 146.475052,445.030670 143.818802,445.857361 
	C141.735840,445.201324 138.919525,444.314331 135.309769,443.334412 
M455.410095,447.929260 
	C450.231659,454.227692 449.288635,461.372070 452.792358,467.761078 
	C455.905457,473.437775 462.250824,476.668030 468.678680,475.848206 
	C474.980530,475.044495 479.513367,471.241455 481.436768,463.995636 
	C477.483612,465.166809 474.013611,465.658630 471.079437,467.182281 
	C465.905579,469.868988 460.899872,467.889313 460.009308,461.812378 
	C467.467194,461.812378 474.864349,461.812378 482.564850,461.812378 
	C482.715057,454.537720 480.759979,448.781647 474.504639,445.450989 
	C468.022583,441.999573 461.703003,442.687531 455.410095,447.929260 
M231.926422,468.989258 
	C232.418228,467.833191 232.910019,466.677155 233.401825,465.521088 
	C233.158478,465.067169 232.915131,464.613220 232.671783,464.159302 
	C229.422989,465.154572 225.954346,465.719208 222.974182,467.240662 
	C217.820496,469.871765 212.702408,467.729767 212.111237,461.738892 
	C219.549286,461.738892 226.945312,461.738892 234.280609,461.738892 
	C234.996017,451.015839 228.448471,443.452087 218.798920,443.316895 
	C209.266174,443.183380 202.280914,450.933411 202.866837,460.993286 
	C203.240753,467.413513 207.239868,472.984283 213.181580,474.933990 
	C220.424454,477.310638 226.575073,475.513367 231.926422,468.989258 
M533.484985,454.305054 
	C535.260681,451.320496 538.232849,449.815979 541.033630,451.460052 
	C542.842651,452.521973 544.176392,455.639618 544.374451,457.951569 
	C544.849243,463.493408 544.527954,469.103485 544.527954,474.716949 
	C547.737488,474.716949 550.145874,474.716949 552.936829,474.716949 
	C552.936829,469.476929 552.945496,464.516388 552.931885,459.555908 
	C552.927368,457.892395 552.996826,456.214081 552.808716,454.568085 
	C551.804504,445.782379 544.934753,441.516876 536.627686,444.485046 
	C535.295959,444.960846 534.005737,445.552643 532.051270,446.355988 
	C532.051270,441.617920 532.051270,437.539368 532.051270,433.388977 
	C529.162720,433.388977 526.765503,433.388977 524.338623,433.388977 
	C524.338623,447.397095 524.338623,461.105621 524.338623,474.678162 
	C527.107544,474.678162 529.525635,474.678162 531.769958,474.678162 
	C532.233398,467.904236 532.673889,461.467224 533.484985,454.305054 
M324.387115,472.204559 
	C330.835449,476.922119 337.615173,477.319641 344.367889,473.169861 
	C349.978180,469.722137 352.244629,464.273529 351.586334,457.831665 
	C350.839600,450.524689 345.812286,445.253632 338.751709,443.826721 
	C331.152008,442.290894 323.903625,445.415985 320.438782,451.722198 
	C316.861694,458.232758 318.069427,465.445953 324.387115,472.204559 
M248.917068,465.520935 
	C248.932205,463.195038 248.851044,460.863647 248.982468,458.544342 
	C249.259247,453.659027 251.862503,450.759583 255.777084,451.009033 
	C260.605103,451.316742 260.961823,454.882568 260.991943,458.542938 
	C261.036499,463.964844 261.003479,469.387390 261.003479,474.785553 
	C264.115845,474.785553 266.552277,474.785553 269.197754,474.785553 
	C269.197754,467.936554 269.530304,461.296051 269.118042,454.702087 
	C268.533722,445.356384 260.390839,440.911255 251.911987,444.981537 
	C250.595398,445.613617 249.371231,446.438202 249.344315,446.453827 
	C245.933273,445.317230 243.520813,444.513367 240.640717,443.553650 
	C240.640717,454.779449 240.640717,464.687134 240.640717,474.696228 
	C243.466293,474.696228 246.018280,474.696228 248.917038,474.696228 
	C248.917038,471.747711 248.917038,469.117584 248.917068,465.520935 
M168.406494,156.093643 
	C161.743622,147.387497 153.654068,142.032654 142.011810,144.334900 
	C138.864914,144.957184 136.233185,144.282211 134.033600,141.014313 
	C131.166565,136.754822 124.950005,136.771988 121.275238,140.264709 
	C117.558968,143.796890 117.467209,149.675339 121.072853,153.231644 
	C124.898140,157.004578 131.265976,157.056427 134.186020,152.519699 
	C136.408630,149.066513 138.935745,148.591156 142.388474,148.839310 
	C144.874969,149.018005 147.410919,149.103180 149.877823,148.820312 
	C153.545807,148.399750 156.047470,149.840042 158.584229,152.422165 
	C169.559723,163.593918 180.704514,174.601303 191.925705,185.526764 
	C193.054031,186.625381 195.113602,186.767593 196.740982,187.353653 
	C196.075439,185.688995 195.832932,183.612167 194.676773,182.425522 
	C186.189621,173.714600 177.519623,165.181824 168.406494,156.093643 
M501.932098,152.391098 
	C506.820099,156.907303 512.068054,157.024231 515.823608,152.700607 
	C519.181946,148.834290 518.676697,143.128693 514.682800,139.816696 
	C510.640472,136.464493 505.257172,137.569778 501.115479,142.080246 
	C499.912445,143.390366 497.433472,144.517365 495.769623,144.257019 
	C484.105408,142.431763 475.755096,146.941223 468.192657,155.772934 
	C459.670227,165.725708 449.762970,174.488724 440.559937,183.869171 
	C439.695343,184.750412 439.499878,186.332458 439.183563,187.635239 
	C439.153595,187.758636 440.710693,188.651047 441.147614,188.429672 
	C442.298340,187.846710 443.316193,186.925766 444.249390,186.000656 
	C455.827087,174.523224 467.376160,163.016983 478.942749,151.528366 
	C481.527313,148.961227 497.308868,147.511093 500.176483,149.643341 
	C500.786987,150.097290 501.032867,151.041534 501.932098,152.391098 
M501.749664,475.896698 
	C511.296143,475.654022 517.175476,471.042267 517.815430,463.294708 
	C511.896576,462.647522 511.896576,462.647522 507.769501,466.108093 
	C504.614410,468.753693 500.158203,468.575287 497.391846,465.692627 
	C494.275970,462.445740 494.142853,457.311218 497.085510,453.877411 
	C499.809448,450.698822 504.864166,449.960205 507.705566,453.201508 
	C510.827972,456.763397 514.195190,456.078430 517.927185,455.744751 
	C516.477966,448.173889 510.769714,443.458618 503.164825,443.321747 
	C495.440399,443.182678 488.564545,448.371338 486.961426,455.549103 
	C484.721710,465.577026 490.010223,473.264404 501.749664,475.896698 
M134.274597,202.700546 
	C142.958801,203.733368 146.907440,199.848999 145.987946,191.387711 
	C145.852554,190.141907 146.195999,188.426605 146.999893,187.564407 
	C151.971725,182.232040 157.138733,177.081635 162.514328,171.591553 
	C170.124359,179.245422 177.322403,186.610046 184.717468,193.771225 
	C185.690048,194.713043 187.670471,194.614090 189.184113,194.997177 
	C188.713058,193.617615 188.627762,191.863663 187.709808,190.917877 
	C180.530289,183.520905 173.125366,176.342865 165.938034,168.953262 
	C163.555634,166.503799 161.803558,166.347839 159.378265,168.918152 
	C154.587784,173.995102 149.621460,178.915619 144.538483,183.699615 
	C143.433319,184.739792 141.453171,185.578293 140.010651,185.402817 
	C134.507339,184.733383 130.782562,186.306854 128.936615,190.662750 
	C127.045067,195.126236 128.514496,198.850311 134.274597,202.700546 
M205.187653,156.312683 
	C208.009933,159.133636 210.701889,162.106796 213.724274,164.693985 
	C214.800095,165.614914 216.677826,165.599045 218.189499,166.010803 
	C217.737579,164.629608 217.664429,162.898117 216.767609,161.928329 
	C213.045212,157.903091 209.478897,153.559280 205.113235,150.338150 
	C194.912384,142.811600 190.922256,133.224136 192.854675,120.728683 
	C193.366379,117.419930 193.166229,114.720825 196.678818,112.539062 
	C201.119461,109.780891 201.243500,103.790161 197.789841,99.862122 
	C194.403549,96.010750 188.581329,95.780617 184.889206,99.352234 
	C181.104813,103.013115 180.626434,109.186958 184.963135,112.024155 
	C188.922089,114.614235 188.795059,117.712036 188.741043,121.338898 
	C188.691528,124.663628 188.919067,128.012665 188.594498,131.308640 
	C188.036255,136.977966 189.359467,141.532837 194.072739,145.284851 
	C197.948547,148.370224 201.174454,152.271988 205.187653,156.312683 
M508.170441,193.605408 
	C506.860535,187.341797 502.843658,183.906677 497.493134,185.360184 
	C494.602356,186.145493 493.230682,185.094513 491.544098,183.375427 
	C486.883698,178.625137 482.006622,174.079422 477.493011,169.196075 
	C474.754639,166.233353 472.756348,166.456116 470.171539,169.306778 
	C466.822845,172.999847 463.160553,176.408630 459.632233,179.938797 
	C455.633362,183.939774 451.569000,187.879044 447.692535,191.995270 
	C446.985596,192.745911 447.043152,194.216492 446.747803,195.354752 
	C448.031555,195.239258 449.533875,195.501724 450.545959,194.916458 
	C451.938232,194.111389 452.967255,192.672577 454.138702,191.492172 
	C460.636627,184.944305 467.130615,178.392487 474.015167,171.449448 
	C479.567291,177.169907 484.607880,182.235336 489.453918,187.480515 
	C490.274414,188.368591 490.716492,190.091858 490.550690,191.323914 
	C489.710419,197.567291 492.393921,202.163269 497.645966,202.992508 
	C503.170441,203.864792 507.028961,200.727173 508.170441,193.605408 
M417.564819,164.169525 
	C417.736053,168.826965 419.881287,167.587952 421.990814,165.538193 
	C426.405365,161.248611 430.258728,156.241928 435.142365,152.603119 
	C445.922058,144.571167 450.119781,134.348694 447.984375,121.184349 
	C447.404541,117.609772 447.791718,114.457397 451.603027,111.861328 
	C455.602997,109.136742 455.179047,102.990318 451.736145,99.480721 
	C448.222626,95.899178 442.246918,95.994164 438.781982,99.686699 
	C435.367249,103.325729 435.084076,109.367241 439.226746,112.035751 
	C443.587341,114.844650 443.756836,118.341003 443.550323,122.577530 
	C443.380402,126.063248 443.339142,129.577530 443.584717,133.054871 
	C443.826111,136.472427 442.758118,138.960495 440.241974,141.373260 
	C432.678314,148.626160 425.372162,156.147629 417.564819,164.169525 
M431.561890,475.004791 
	C433.014313,474.925415 434.466736,474.846008 436.519409,474.733795 
	C436.519409,464.097107 436.519409,453.720428 436.519409,442.837921 
	C440.538147,442.837921 443.937286,442.837921 447.341736,442.837921 
	C447.341736,440.039612 447.341736,437.780548 447.341736,435.446136 
	C437.040497,435.446136 427.028076,435.446136 417.047333,435.446136 
	C417.047333,438.109100 417.047333,440.375031 417.047333,443.184570 
	C420.696411,443.184570 424.099030,443.184570 427.878906,443.184570 
	C427.878906,452.847656 427.867432,461.967377 427.888306,471.087006 
	C427.892639,472.977509 427.259186,475.395508 431.561890,475.004791 
M174.764877,448.467468 
	C174.457275,450.968231 175.351151,452.163757 178.073700,451.954651 
	C180.604843,451.760284 183.162643,451.913147 186.327927,451.913147 
	C181.686630,459.948975 177.527298,467.150360 173.138718,474.748627 
	C182.324249,474.748627 190.430771,474.748627 198.676651,474.748627 
	C198.676651,472.233429 198.676651,469.993256 198.676651,467.031189 
	C194.611862,467.031189 190.784760,467.031189 186.178726,467.031189 
	C190.838791,459.058411 194.976761,451.978882 199.567017,444.125519 
	C191.522736,444.125519 184.565277,443.989838 177.625366,444.277557 
	C176.628479,444.318909 175.716263,446.402191 174.764877,448.467468 
M291.185974,443.572693 
	C291.185974,453.980682 291.185974,464.388672 291.185974,474.764893 
	C299.549683,474.764893 307.151184,474.764893 314.886597,474.764893 
	C314.886597,472.126404 314.886597,469.742981 314.886597,466.913635 
	C309.852417,466.913635 305.100708,466.913635 299.835358,466.913635 
	C299.835358,456.087646 299.835358,445.701935 299.835358,435.375214 
	C296.719421,435.375214 294.148895,435.375214 291.186096,435.375214 
	C291.186096,438.003326 291.186096,440.302124 291.185974,443.572693 
M218.839310,147.626587 
	C217.227264,146.467422 215.615219,145.308243 213.191742,143.565598 
	C218.226868,138.794205 222.040070,134.886978 226.206833,131.402557 
	C227.541565,130.286392 229.852142,129.749893 231.645538,129.885223 
	C236.122131,130.223007 239.544968,128.863358 241.573746,124.848145 
	C243.403534,121.226784 242.868576,117.667686 240.093292,114.720337 
	C237.155640,111.600571 233.459732,110.935242 229.630539,112.793144 
	C225.601990,114.747772 224.162323,118.073212 224.605270,122.637421 
	C224.790421,124.545029 223.946060,127.056557 222.673264,128.506516 
	C218.956223,132.740952 214.664001,136.467545 210.887894,140.655258 
	C210.009933,141.628891 209.508789,144.336517 210.158707,145.065506 
	C214.130341,149.520416 218.417648,153.705658 222.782120,157.785660 
	C223.423767,158.385483 225.035645,157.947449 226.198608,157.989609 
	C226.020401,156.823303 226.235504,155.330978 225.589905,154.552109 
	C223.689987,152.260071 221.448669,150.251038 218.839310,147.626587 
M401.860657,129.876984 
	C404.349884,129.983597 407.584320,129.131546 409.187653,130.377838 
	C413.868134,134.016098 417.897369,138.492157 422.580658,143.025848 
	C418.340393,147.187653 414.484985,150.806213 410.868561,154.649658 
	C410.068329,155.500168 410.113037,157.145737 409.768677,158.425232 
	C411.190979,158.148407 413.045471,158.346390 413.961029,157.512924 
	C418.015869,153.821716 421.747772,149.778870 425.704132,145.975204 
	C427.981781,143.785492 427.422058,142.082489 425.380035,140.135468 
	C421.768768,136.692245 418.342560,133.055496 414.748901,129.593155 
	C412.446411,127.374786 410.474182,125.513351 411.748932,121.578789 
	C412.344147,119.741600 410.874542,116.740112 409.509613,114.874443 
	C407.221649,111.747078 403.607880,111.115173 400.051483,112.382584 
	C396.317322,113.713371 394.013458,116.513206 394.013947,120.672783 
	C394.014526,125.466515 396.620422,128.361618 401.860657,129.876984 
M432.263733,169.819214 
	C431.209869,170.876053 429.914764,171.789368 429.174896,173.033020 
	C428.528290,174.119873 428.506500,175.578476 428.208679,176.872833 
	C429.490112,176.630814 431.146393,176.812973 431.986023,176.070999 
	C435.087097,173.330521 437.732330,170.055939 440.932648,167.454147 
	C442.432495,166.234879 444.860046,165.439438 446.775085,165.593811 
	C451.083679,165.941147 454.377655,164.584305 456.429413,160.960022 
	C458.510498,157.284012 458.058044,153.576935 455.074341,150.431686 
	C452.073547,147.268448 448.317017,146.809082 444.588776,148.550552 
	C440.779602,150.329819 438.752533,153.769989 439.764496,157.927216 
	C440.527588,161.062088 439.554169,162.912094 437.372711,164.769775 
	C435.736359,166.163269 434.299194,167.790680 432.263733,169.819214 
M180.576508,151.310181 
	C177.156021,158.591873 180.583954,166.455704 187.489197,165.349884 
	C193.701050,164.355118 196.098801,167.837143 199.405975,171.040314 
	C201.079407,172.661118 202.583038,174.493576 204.421387,175.891037 
	C205.231552,176.506912 206.683838,176.278076 207.844589,176.432739 
	C207.663177,175.252838 207.896271,173.700378 207.228607,172.957550 
	C204.339752,169.743484 201.081375,166.861557 198.192078,163.647812 
	C197.255905,162.606506 196.341461,160.766190 196.611282,159.558060 
	C197.654388,154.887589 196.458160,151.202972 192.380630,148.860336 
	C188.282745,146.505966 184.387192,147.372940 180.576508,151.310181 
M159.998306,472.268616 
	C161.150757,477.931702 165.209396,473.601379 167.832642,475.099762 
	C167.832642,464.491302 167.832642,454.466248 167.832642,444.506042 
	C165.033524,444.506042 162.639984,444.506042 159.996384,444.506042 
	C159.996384,453.680695 159.996384,462.493134 159.998306,472.268616 
M164.494156,440.095825 
	C171.300262,440.198730 167.058533,435.459473 168.198013,432.573853 
	C165.281418,432.573853 162.890915,432.573853 159.905212,432.573853 
	C161.349457,435.299622 156.713257,440.109009 164.494156,440.095825 
z"/>
<path fill="#000000" opacity="1.000000" stroke="none" 
	d="
M280.531342,1.000003 
	C280.185974,1.665976 279.423370,2.834512 278.550354,2.923852 
	C260.346344,4.786747 242.611267,8.762164 225.061310,13.903714 
	C202.895279,20.397627 181.971725,29.753742 161.784119,40.767422 
	C146.036758,49.358643 131.141129,59.347939 117.498726,71.050797 
	C108.158508,79.063118 98.565666,86.885674 90.022865,95.701180 
	C71.894844,114.407906 56.018703,134.978500 43.083057,157.646286 
	C30.721039,179.308853 20.249908,201.913513 13.649683,226.004059 
	C9.614456,240.732483 7.160910,255.894287 3.997707,270.861603 
	C3.239988,274.446899 2.485081,278.032776 1.364442,281.309204 
	C1.000000,187.739609 1.000000,94.479218 1.000000,1.000000 
	C94.020782,1.000000 187.041733,1.000000 280.531342,1.000003 
z"/>
<path fill="#000000" opacity="1.000000" stroke="none" 
	d="
M631.000000,280.531342 
	C630.334045,280.185974 629.165527,279.423370 629.076233,278.550323 
	C627.212952,260.346405 623.237915,242.611252 618.096313,225.061325 
	C611.602295,202.895325 602.246216,181.971756 591.232544,161.784119 
	C582.641357,146.036743 572.652039,131.141144 560.949219,117.498680 
	C552.936951,108.158447 545.114319,98.565643 536.298828,90.022850 
	C517.592102,71.894844 497.021484,56.018703 474.353699,43.083050 
	C452.691162,30.721050 430.086517,20.249912 405.996002,13.649697 
	C391.267578,9.614470 376.105743,7.160911 361.138428,3.997701 
	C357.553131,3.239976 353.967224,2.485080 350.690796,1.364441 
	C444.260376,1.000000 537.520752,1.000000 631.000000,1.000000 
	C631.000000,94.020782 631.000000,187.041733 631.000000,280.531342 
z"/>
<path fill="#000000" opacity="1.000000" stroke="none" 
	d="
M351.468658,631.000000 
	C351.814056,630.334045 352.576630,629.165527 353.449677,629.076172 
	C371.653625,627.212952 389.388824,623.237976 406.938721,618.096313 
	C429.104736,611.602295 450.028259,602.246277 470.215912,591.232605 
	C485.963226,582.641357 500.858856,572.652100 514.501282,560.949280 
	C523.841553,552.936890 533.434326,545.114380 541.977112,536.298828 
	C560.105225,517.592163 575.981262,497.021454 588.916931,474.353699 
	C601.278931,452.691162 611.750061,430.086548 618.350159,405.995972 
	C622.385376,391.267548 624.839111,376.105743 628.002319,361.138458 
	C628.760010,357.553131 629.514893,353.967224 630.635498,350.690796 
	C631.000000,444.260406 631.000000,537.520813 631.000000,631.000000 
	C537.979248,631.000000 444.958282,631.000000 351.468658,631.000000 
z"/>
<path fill="#000000" opacity="1.000000" stroke="none" 
	d="
M0.999999,351.468658 
	C1.665969,351.814026 2.834502,352.576630 2.923843,353.449646 
	C4.786754,371.653656 8.762144,389.388733 13.903705,406.938660 
	C20.397610,429.104675 29.753714,450.028198 40.767380,470.215820 
	C49.358597,485.963135 59.347870,500.858795 71.050728,514.501160 
	C79.063049,523.841431 86.885536,533.434265 95.701073,541.977051 
	C114.407837,560.105042 134.978287,575.981384 157.646164,588.916931 
	C179.308868,601.278809 201.913467,611.750061 226.004028,618.350281 
	C240.732468,622.385437 255.894196,624.839111 270.861481,628.002319 
	C274.446808,628.760071 278.032776,629.514832 281.309204,630.635498 
	C187.739609,631.000000 94.479218,631.000000 1.000000,631.000000 
	C1.000000,537.979248 1.000000,444.958282 0.999999,351.468658 
z"/>
<path fill="#555555" opacity="1.000000" stroke="none" 
	d="
M305.548645,342.428070 
	C301.163086,337.384308 296.058044,334.645874 289.069672,334.975159 
	C291.283783,328.277008 291.248505,322.033539 286.693146,316.588196 
	C282.237091,311.261566 276.441040,309.476440 269.187256,310.682861 
	C269.187256,308.795105 269.243225,307.051666 269.177521,305.312836 
	C268.902802,298.042816 265.045166,292.968414 258.681396,290.174408 
	C252.626160,287.515839 246.547043,288.240356 241.451538,292.838867 
	C236.757263,297.075287 232.263931,301.534332 227.215363,306.339539 
	C224.998047,303.929657 222.707962,301.633331 220.635437,299.155029 
	C211.135101,287.794617 203.447571,275.483765 200.414047,260.692413 
	C199.334305,255.427551 200.329727,251.427444 204.464783,247.393066 
	C224.979263,227.378082 245.086868,206.946869 265.474976,186.801086 
	C272.689972,179.671860 282.130676,177.125320 291.809082,176.138626 
	C301.725281,175.127686 311.737488,175.058304 321.985626,175.481018 
	C321.161011,176.012802 320.312500,176.511169 319.515625,177.081696 
	C313.580475,181.331100 307.039948,184.956207 301.839203,189.969940 
	C283.966400,207.200119 266.537354,224.891617 248.996460,242.464523 
	C243.141373,248.330276 241.803040,255.736221 245.089615,262.574493 
	C250.313492,273.443542 264.208893,275.843414 272.753571,267.332916 
	C282.551941,257.573792 292.304352,247.768372 302.124939,238.031723 
	C308.880371,231.334061 316.005920,231.251312 322.634277,237.857407 
	C350.962158,266.090271 379.223816,294.389618 407.586426,322.587494 
	C411.790985,326.767639 413.427490,331.510925 411.657135,337.090729 
	C410.119965,341.935608 406.481903,344.779053 401.451416,345.550476 
	C396.622955,346.290924 392.771210,344.351501 389.383636,340.960510 
	C374.544067,326.105927 359.634766,311.320923 344.751007,296.510468 
	C344.042450,295.805450 343.454224,294.810394 342.600647,294.459442 
	C341.285919,293.918793 339.789856,293.819122 338.370697,293.532379 
	C338.783661,294.810974 338.891235,296.332520 339.674286,297.316681 
	C341.220703,299.260223 343.137115,300.910126 344.907379,302.674591 
	C361.077148,318.791534 377.305786,334.849854 393.394501,351.047302 
	C401.229462,358.935242 398.782288,370.273621 388.762573,373.411591 
	C383.326721,375.114014 378.947571,373.010345 375.164642,369.348236 
	C369.777344,364.132965 364.521210,358.782166 359.210754,353.487518 
	C347.173798,341.486267 335.190430,329.430145 323.033081,317.552124 
	C321.561829,316.114624 319.153473,315.636200 317.179443,314.713287 
	C318.113983,316.603088 318.639130,318.897614 320.045868,320.320587 
	C335.627319,336.081848 351.321991,351.731567 367.043182,367.353973 
	C370.974701,371.260834 372.307953,375.852631 370.768036,381.050385 
	C369.388184,385.707825 366.010864,388.648895 361.250885,389.667419 
	C356.049072,390.780487 351.916168,388.742218 348.254395,385.061096 
	C334.152435,370.884583 319.959320,356.798706 305.548645,342.428070 
z"/>
<path fill="#555555" opacity="1.000000" stroke="none" 
	d="
M338.412994,247.586761 
	C333.804230,242.980133 329.515411,238.550659 325.071320,234.282913 
	C317.280548,226.801285 307.488373,226.814850 299.751526,234.401016 
	C289.762817,244.195160 279.877777,254.095581 269.995453,263.997498 
	C264.873413,269.129730 257.460510,269.500671 252.045258,264.769165 
	C246.920532,260.291504 246.202408,252.768646 250.436050,247.214874 
	C251.339066,246.030273 252.448761,244.997162 253.506668,243.937607 
	C269.981232,227.437378 286.393372,210.873917 302.975037,194.481964 
	C310.247040,187.293137 318.508667,181.443069 328.250641,177.936157 
	C343.807800,172.335892 357.874634,174.891739 369.686768,186.476532 
	C391.922424,208.284134 413.891479,230.364471 435.836182,252.465637 
	C437.110229,253.748779 437.585632,256.208740 437.685303,258.159210 
	C437.773682,259.888672 436.904663,261.700073 436.314178,263.426025 
	C432.008270,276.011810 413.549683,302.419647 402.201111,311.870850 
	C381.062012,290.566742 359.862518,269.201721 338.412994,247.586761 
z"/>
<path fill="#565656" opacity="1.000000" stroke="none" 
	d="
M382.227051,192.772949 
	C376.193420,186.769165 370.352966,181.071060 364.642853,175.245224 
	C359.403961,169.900085 359.406952,164.469086 364.565765,158.988831 
	C367.417664,155.959183 370.347687,152.996872 373.350708,150.117050 
	C378.147858,145.516769 384.057892,145.309158 388.912842,149.845154 
	C394.019531,154.616379 398.848846,159.684738 403.791351,164.631256 
	C424.032684,184.889191 444.273865,205.147278 464.508972,225.411438 
	C472.051605,232.964920 472.042999,237.728638 464.502838,245.248352 
	C462.616608,247.129456 460.732086,249.012436 458.832458,250.879929 
	C452.212463,257.387817 446.944580,257.435333 440.420349,250.926620 
	C421.089661,231.641708 401.789276,212.326385 382.227051,192.772949 
z"/>
<path fill="#555555" opacity="1.000000" stroke="none" 
	d="
M247.230148,149.131622 
	C253.581375,143.637314 258.482056,143.658127 264.135284,149.065674 
	C266.419128,151.250244 268.540680,153.603836 270.752411,155.864548 
	C278.137085,163.412750 278.065247,168.153442 270.436554,175.734024 
	C257.801483,188.289413 245.152252,200.830627 232.534637,213.403549 
	C220.506317,225.389328 208.517136,237.414429 196.498291,249.409744 
	C189.910889,255.984253 184.754944,255.972565 178.053436,249.389542 
	C175.678284,247.056396 173.297791,244.726624 170.986954,242.330475 
	C165.321198,236.455582 165.295944,231.210403 171.100449,225.372360 
	C188.120270,208.254227 205.204254,191.199890 222.262924,174.120377 
	C230.498245,165.875000 238.733124,157.629181 247.230148,149.131622 
z"/>
<path fill="#575757" opacity="1.000000" stroke="none" 
	d="
M219.062347,324.416809 
	C220.450272,321.572876 221.375580,318.735138 223.226456,316.768463 
	C229.487503,310.115692 235.953934,303.642609 242.576447,297.347656 
	C248.621231,291.601837 256.541748,291.733734 261.647522,297.286377 
	C266.573334,302.643311 266.111938,310.204651 260.401428,315.995667 
	C254.334076,322.148560 248.138199,328.175110 242.096710,334.352936 
	C237.864365,338.680756 233.005447,340.392303 227.200485,338.251923 
	C221.679962,336.216370 219.105789,331.825806 219.062347,324.416809 
z"/>
<path fill="#565656" opacity="1.000000" stroke="none" 
	d="
M255.765106,326.765076 
	C258.729218,323.809570 261.383667,321.040771 264.169678,318.411499 
	C269.367676,313.505981 277.432953,313.355072 282.269897,317.981628 
	C287.270447,322.764679 287.818420,330.713898 282.871277,335.993317 
	C276.042664,343.280701 268.931763,350.325867 261.626587,357.136749 
	C256.501099,361.915466 248.760193,361.440521 244.015656,356.671997 
	C238.977890,351.608765 238.815781,344.217438 243.887192,338.712463 
	C247.609573,334.671814 251.628204,330.904144 255.765106,326.765076 
z"/>
<path fill="#565656" opacity="1.000000" stroke="none" 
	d="
M275.571350,349.565369 
	C277.800201,347.290833 279.739594,345.225739 281.765808,343.249603 
	C286.956726,338.187042 294.930969,337.950836 299.784058,342.670929 
	C305.092255,347.833649 305.470245,355.680328 300.371460,361.050323 
	C294.868286,366.846191 289.220154,372.514679 283.439697,378.033905 
	C278.164642,383.070618 270.392426,382.948151 265.441620,378.062256 
	C260.451599,373.137665 260.217438,365.437805 265.112396,360.095459 
	C268.372314,356.537628 271.908752,353.233154 275.571350,349.565369 
z"/>
<path fill="#575757" opacity="1.000000" stroke="none" 
	d="
M285.683624,398.174561 
	C281.410950,390.799896 282.018738,385.680115 287.645905,379.952576 
	C291.254791,376.279297 294.833862,372.567932 298.599976,369.060120 
	C304.036072,363.996948 311.484222,363.974731 316.554352,368.805359 
	C321.765594,373.770538 322.037964,381.477722 316.922607,387.130524 
	C313.359955,391.067505 309.539124,394.782135 305.694061,398.449738 
	C299.227966,404.617340 292.600555,404.566956 285.683624,398.174561 
z"/>
<path fill="#575757" opacity="1.000000" stroke="none" 
	d="
M83.889404,472.776855 
	C83.879547,460.038483 83.879547,447.778015 83.879547,435.287354 
	C86.803497,435.287354 89.220169,435.287354 92.201019,435.287354 
	C92.201019,440.776001 92.201019,446.154694 92.201019,451.533356 
	C92.583900,451.679016 92.966782,451.824707 93.349670,451.970367 
	C95.980865,448.346436 99.054947,444.958282 101.138992,441.043121 
	C104.229340,435.237427 108.644981,433.847565 115.116745,435.612335 
	C110.773544,441.822937 106.532791,447.887024 102.073242,454.264008 
	C106.898064,460.966034 111.692314,467.625580 116.646683,474.507538 
	C110.236748,475.909393 105.376694,475.380188 102.078186,469.195221 
	C99.769302,464.865814 96.362617,461.121857 92.609978,455.967957 
	C92.609978,462.983917 92.609978,468.662048 92.609978,475.838501 
	C89.133980,474.807465 86.516624,474.031097 83.889404,472.776855 
z"/>
<path fill="#595959" opacity="1.000000" stroke="none" 
	d="
M342.073975,385.110107 
	C346.329224,392.460907 345.019135,400.126617 339.125702,403.900757 
	C331.701721,408.655151 323.922546,405.565094 315.796387,394.459839 
	C322.272095,388.289001 327.546356,381.423248 323.498505,371.748016 
	C320.412659,364.372101 314.357300,361.084900 306.341858,360.845886 
	C307.081482,357.914795 307.783295,355.133545 308.555695,352.072510 
	C319.687500,363.012482 330.775208,373.909058 342.073975,385.110107 
z"/>
<path fill="#585858" opacity="1.000000" stroke="none" 
	d="
M135.706482,443.380859 
	C138.919525,444.314331 141.735840,445.201324 143.818802,445.857361 
	C146.475052,445.030670 148.753418,444.321625 151.632217,443.425690 
	C151.632217,454.330780 151.632217,464.352417 151.632217,475.387695 
	C149.380341,474.814270 147.237961,474.210297 145.065628,473.746826 
	C144.289902,473.581268 143.299881,473.481079 142.648346,473.817352 
	C135.809265,477.346954 129.360672,476.642548 123.759926,471.540955 
	C118.580154,466.822784 117.595146,460.615509 119.688927,454.149902 
	C122.088081,446.741364 127.798828,443.615784 135.706482,443.380859 
M128.754456,464.603729 
	C131.834869,468.334534 135.660233,469.142426 139.782944,466.797943 
	C143.322510,464.785065 144.553970,461.398743 143.545517,457.431732 
	C142.350769,452.731750 137.713715,450.193329 133.142578,451.574799 
	C127.910027,453.156128 126.106529,457.776489 128.754456,464.603729 
z"/>
<path fill="#5A5A5A" opacity="1.000000" stroke="none" 
	d="
M455.681244,447.676758 
	C461.703003,442.687531 468.022583,441.999573 474.504639,445.450989 
	C480.759979,448.781647 482.715057,454.537720 482.564850,461.812378 
	C474.864349,461.812378 467.467194,461.812378 460.009308,461.812378 
	C460.899872,467.889313 465.905579,469.868988 471.079437,467.182281 
	C474.013611,465.658630 477.483612,465.166809 481.436768,463.995636 
	C479.513367,471.241455 474.980530,475.044495 468.678680,475.848206 
	C462.250824,476.668030 455.905457,473.437775 452.792358,467.761078 
	C449.288635,461.372070 450.231659,454.227692 455.681244,447.676758 
M460.298767,454.208588 
	C460.549652,454.842712 460.785248,456.021881 461.053711,456.029419 
	C465.218384,456.146149 469.387299,456.110962 473.920380,456.110962 
	C470.326813,449.699921 465.899323,449.046631 460.298767,454.208588 
z"/>
<path fill="#5A5A5A" opacity="1.000000" stroke="none" 
	d="
M231.704926,469.309998 
	C226.575073,475.513367 220.424454,477.310638 213.181580,474.933990 
	C207.239868,472.984283 203.240753,467.413513 202.866837,460.993286 
	C202.280914,450.933411 209.266174,443.183380 218.798920,443.316895 
	C228.448471,443.452087 234.996017,451.015839 234.280609,461.738892 
	C226.945312,461.738892 219.549286,461.738892 212.111237,461.738892 
	C212.702408,467.729767 217.820496,469.871765 222.974182,467.240662 
	C225.954346,465.719208 229.422989,465.154572 232.671783,464.159302 
	C232.915131,464.613220 233.158478,465.067169 233.401825,465.521088 
	C232.910019,466.677155 232.418228,467.833191 231.704926,469.309998 
M222.461273,451.559723 
	C216.060913,449.876923 213.512024,450.980499 212.457077,455.865540 
	C216.809341,455.865540 221.163544,455.865540 226.001038,455.865540 
	C225.474991,454.839905 225.264099,454.220795 224.882507,453.736023 
	C224.377197,453.094025 223.738358,452.557129 222.461273,451.559723 
z"/>
<path fill="#565656" opacity="1.000000" stroke="none" 
	d="
M533.299683,454.667633 
	C532.673889,461.467224 532.233398,467.904236 531.769958,474.678162 
	C529.525635,474.678162 527.107544,474.678162 524.338623,474.678162 
	C524.338623,461.105621 524.338623,447.397095 524.338623,433.388977 
	C526.765503,433.388977 529.162720,433.388977 532.051270,433.388977 
	C532.051270,437.539368 532.051270,441.617920 532.051270,446.355988 
	C534.005737,445.552643 535.295959,444.960846 536.627686,444.485046 
	C544.934753,441.516876 551.804504,445.782379 552.808716,454.568085 
	C552.996826,456.214081 552.927368,457.892395 552.931885,459.555908 
	C552.945496,464.516388 552.936829,469.476929 552.936829,474.716949 
	C550.145874,474.716949 547.737488,474.716949 544.527954,474.716949 
	C544.527954,469.103485 544.849243,463.493408 544.374451,457.951569 
	C544.176392,455.639618 542.842651,452.521973 541.033630,451.460052 
	C538.232849,449.815979 535.260681,451.320496 533.299683,454.667633 
z"/>
<path fill="#595959" opacity="1.000000" stroke="none" 
	d="
M324.091156,471.986328 
	C318.069427,465.445953 316.861694,458.232758 320.438782,451.722198 
	C323.903625,445.415985 331.152008,442.290894 338.751709,443.826721 
	C345.812286,445.253632 350.839600,450.524689 351.586334,457.831665 
	C352.244629,464.273529 349.978180,469.722137 344.367889,473.169861 
	C337.615173,477.319641 330.835449,476.922119 324.091156,471.986328 
M328.624878,454.292511 
	C325.402893,460.899139 327.608154,467.006165 333.644501,467.888397 
	C337.429291,468.441528 340.645233,467.224640 342.275238,463.568695 
	C343.965454,459.777618 343.721283,455.917725 340.367249,453.167175 
	C336.673279,450.137878 332.735199,450.523163 328.624878,454.292511 
z"/>
<path fill="#5B5B5B" opacity="1.000000" stroke="none" 
	d="
M248.917053,466.004181 
	C248.917038,469.117584 248.917038,471.747711 248.917038,474.696228 
	C246.018280,474.696228 243.466293,474.696228 240.640717,474.696228 
	C240.640717,464.687134 240.640717,454.779449 240.640717,443.553650 
	C243.520813,444.513367 245.933273,445.317230 249.344315,446.453827 
	C249.371231,446.438202 250.595398,445.613617 251.911987,444.981537 
	C260.390839,440.911255 268.533722,445.356384 269.118042,454.702087 
	C269.530304,461.296051 269.197754,467.936554 269.197754,474.785553 
	C266.552277,474.785553 264.115845,474.785553 261.003479,474.785553 
	C261.003479,469.387390 261.036499,463.964844 260.991943,458.542938 
	C260.961823,454.882568 260.605103,451.316742 255.777084,451.009033 
	C251.862503,450.759583 249.259247,453.659027 248.982468,458.544342 
	C248.851044,460.863647 248.932205,463.195038 248.917053,466.004181 
z"/>
<path fill="#5C5C5C" opacity="1.000000" stroke="none" 
	d="
M168.656876,156.343262 
	C177.519623,165.181824 186.189621,173.714600 194.676773,182.425522 
	C195.832932,183.612167 196.075439,185.688995 196.740997,187.353653 
	C195.113602,186.767593 193.054031,186.625381 191.925705,185.526764 
	C180.704514,174.601303 169.559723,163.593918 158.584229,152.422165 
	C156.047470,149.840042 153.545807,148.399750 149.877823,148.820312 
	C147.410919,149.103180 144.874969,149.018005 142.388474,148.839310 
	C138.935745,148.591156 136.408630,149.066513 134.186020,152.519699 
	C131.265976,157.056427 124.898140,157.004578 121.072853,153.231644 
	C117.467209,149.675339 117.558968,143.796890 121.275238,140.264709 
	C124.950005,136.771988 131.166565,136.754822 134.033600,141.014313 
	C136.233185,144.282211 138.864914,144.957184 142.011810,144.334900 
	C153.654068,142.032654 161.743622,147.387497 168.656876,156.343262 
z"/>
<path fill="#5C5C5C" opacity="1.000000" stroke="none" 
	d="
M501.689423,152.075500 
	C501.032867,151.041534 500.786987,150.097290 500.176483,149.643341 
	C497.308868,147.511093 481.527313,148.961227 478.942749,151.528366 
	C467.376160,163.016983 455.827087,174.523224 444.249390,186.000656 
	C443.316193,186.925766 442.298340,187.846710 441.147614,188.429672 
	C440.710693,188.651047 439.153595,187.758636 439.183563,187.635239 
	C439.499878,186.332458 439.695343,184.750412 440.559937,183.869171 
	C449.762970,174.488724 459.670227,165.725708 468.192657,155.772934 
	C475.755096,146.941223 484.105408,142.431763 495.769623,144.257019 
	C497.433472,144.517365 499.912445,143.390366 501.115479,142.080246 
	C505.257172,137.569778 510.640472,136.464493 514.682800,139.816696 
	C518.676697,143.128693 519.181946,148.834290 515.823608,152.700607 
	C512.068054,157.024231 506.820099,156.907303 501.689423,152.075500 
z"/>
<path fill="#595959" opacity="1.000000" stroke="none" 
	d="
M501.334229,475.867126 
	C490.010223,473.264404 484.721710,465.577026 486.961426,455.549103 
	C488.564545,448.371338 495.440399,443.182678 503.164825,443.321747 
	C510.769714,443.458618 516.477966,448.173889 517.927185,455.744751 
	C514.195190,456.078430 510.827972,456.763397 507.705566,453.201508 
	C504.864166,449.960205 499.809448,450.698822 497.085510,453.877411 
	C494.142853,457.311218 494.275970,462.445740 497.391846,465.692627 
	C500.158203,468.575287 504.614410,468.753693 507.769501,466.108093 
	C511.896576,462.647522 511.896576,462.647522 517.815430,463.294708 
	C517.175476,471.042267 511.296143,475.654022 501.334229,475.867126 
z"/>
<path fill="#5B5B5B" opacity="1.000000" stroke="none" 
	d="
M133.914673,202.533691 
	C128.514496,198.850311 127.045067,195.126236 128.936615,190.662750 
	C130.782562,186.306854 134.507339,184.733383 140.010651,185.402817 
	C141.453171,185.578293 143.433319,184.739792 144.538483,183.699615 
	C149.621460,178.915619 154.587784,173.995102 159.378265,168.918152 
	C161.803558,166.347839 163.555634,166.503799 165.938034,168.953262 
	C173.125366,176.342865 180.530289,183.520905 187.709808,190.917877 
	C188.627762,191.863663 188.713058,193.617615 189.184113,194.997177 
	C187.670471,194.614090 185.690048,194.713043 184.717468,193.771225 
	C177.322403,186.610046 170.124359,179.245422 162.514328,171.591553 
	C157.138733,177.081635 151.971725,182.232040 146.999893,187.564407 
	C146.195999,188.426605 145.852554,190.141907 145.987946,191.387711 
	C146.907440,199.848999 142.958801,203.733368 133.914673,202.533691 
z"/>
<path fill="#5A5A5A" opacity="1.000000" stroke="none" 
	d="
M204.938019,156.062302 
	C201.174454,152.271988 197.948547,148.370224 194.072739,145.284851 
	C189.359467,141.532837 188.036255,136.977966 188.594498,131.308640 
	C188.919067,128.012665 188.691528,124.663628 188.741043,121.338898 
	C188.795059,117.712036 188.922089,114.614235 184.963135,112.024155 
	C180.626434,109.186958 181.104813,103.013115 184.889206,99.352234 
	C188.581329,95.780617 194.403549,96.010750 197.789841,99.862122 
	C201.243500,103.790161 201.119461,109.780891 196.678818,112.539062 
	C193.166229,114.720825 193.366379,117.419930 192.854675,120.728683 
	C190.922256,133.224136 194.912384,142.811600 205.113235,150.338150 
	C209.478897,153.559280 213.045212,157.903091 216.767609,161.928329 
	C217.664429,162.898117 217.737579,164.629608 218.189499,166.010803 
	C216.677826,165.599045 214.800095,165.614914 213.724274,164.693985 
	C210.701889,162.106796 208.009933,159.133636 204.938019,156.062302 
z"/>
<path fill="#5A5A5A" opacity="1.000000" stroke="none" 
	d="
M508.172394,194.018311 
	C507.028961,200.727173 503.170441,203.864792 497.645966,202.992508 
	C492.393921,202.163269 489.710419,197.567291 490.550690,191.323914 
	C490.716492,190.091858 490.274414,188.368591 489.453918,187.480515 
	C484.607880,182.235336 479.567291,177.169907 474.015167,171.449448 
	C467.130615,178.392487 460.636627,184.944305 454.138702,191.492172 
	C452.967255,192.672577 451.938232,194.111389 450.545959,194.916458 
	C449.533875,195.501724 448.031555,195.239258 446.747803,195.354736 
	C447.043152,194.216492 446.985596,192.745911 447.692535,191.995270 
	C451.569000,187.879044 455.633362,183.939774 459.632233,179.938797 
	C463.160553,176.408630 466.822845,172.999847 470.171539,169.306778 
	C472.756348,166.456116 474.754639,166.233353 477.493011,169.196075 
	C482.006622,174.079422 486.883698,178.625137 491.544098,183.375427 
	C493.230682,185.094513 494.602356,186.145493 497.493134,185.360184 
	C502.843658,183.906677 506.860535,187.341797 508.172394,194.018311 
z"/>
<path fill="#595959" opacity="1.000000" stroke="none" 
	d="
M417.765198,163.866943 
	C425.372162,156.147629 432.678314,148.626160 440.241974,141.373260 
	C442.758118,138.960495 443.826111,136.472427 443.584717,133.054871 
	C443.339142,129.577530 443.380402,126.063248 443.550323,122.577530 
	C443.756836,118.341003 443.587341,114.844650 439.226746,112.035751 
	C435.084076,109.367241 435.367249,103.325729 438.781982,99.686699 
	C442.246918,95.994164 448.222626,95.899178 451.736145,99.480721 
	C455.179047,102.990318 455.602997,109.136742 451.603027,111.861328 
	C447.791718,114.457397 447.404541,117.609772 447.984375,121.184349 
	C450.119781,134.348694 445.922058,144.571167 435.142365,152.603119 
	C430.258728,156.241928 426.405365,161.248611 421.990814,165.538193 
	C419.881287,167.587952 417.736053,168.826965 417.765198,163.866943 
z"/>
<path fill="#5E5E5E" opacity="1.000000" stroke="none" 
	d="
M378.003693,450.530243 
	C375.140411,451.088135 372.277161,451.645996 368.987610,452.286957 
	C368.987610,459.516663 368.987610,466.933807 368.987610,474.685913 
	C366.038544,474.685913 363.482422,474.685913 360.445374,474.685913 
	C360.445374,467.266968 360.445374,459.857391 360.445374,452.189056 
	C358.491180,451.807861 356.942139,451.505707 355.250183,451.175659 
	C355.250183,449.071930 355.250183,447.119507 355.250183,445.058685 
	C356.860962,444.803345 358.306915,444.574097 359.691101,444.354675 
	C362.785828,432.648224 364.970062,431.072205 376.280823,432.535919 
	C376.280823,434.399170 376.280823,436.306946 376.280823,438.549500 
	C373.440063,439.634125 367.528076,437.212006 369.238220,444.345032 
	C371.425140,444.527344 373.666504,444.714172 376.121429,444.918793 
	C376.499451,446.325653 376.870636,447.707153 377.641541,449.378845 
	C378.033997,449.956360 378.021484,450.243408 378.003693,450.530243 
z"/>
<path fill="#565656" opacity="1.000000" stroke="none" 
	d="
M431.084045,475.003754 
	C427.259186,475.395508 427.892639,472.977509 427.888306,471.087006 
	C427.867432,461.967377 427.878906,452.847656 427.878906,443.184570 
	C424.099030,443.184570 420.696411,443.184570 417.047333,443.184570 
	C417.047333,440.375031 417.047333,438.109100 417.047333,435.446136 
	C427.028076,435.446136 437.040497,435.446136 447.341736,435.446136 
	C447.341736,437.780548 447.341736,440.039612 447.341736,442.837921 
	C443.937286,442.837921 440.538147,442.837921 436.519409,442.837921 
	C436.519409,453.720428 436.519409,464.097107 436.519409,474.733795 
	C434.466736,474.846008 433.014313,474.925415 431.084045,475.003754 
z"/>
<path fill="#5A5A5A" opacity="1.000000" stroke="none" 
	d="
M174.764862,448.004028 
	C175.716263,446.402191 176.628479,444.318909 177.625366,444.277557 
	C184.565277,443.989838 191.522736,444.125519 199.567017,444.125519 
	C194.976761,451.978882 190.838791,459.058411 186.178726,467.031189 
	C190.784760,467.031189 194.611862,467.031189 198.676651,467.031189 
	C198.676651,469.993256 198.676651,472.233429 198.676651,474.748627 
	C190.430771,474.748627 182.324249,474.748627 173.138718,474.748627 
	C177.527298,467.150360 181.686630,459.948975 186.327927,451.913147 
	C183.162643,451.913147 180.604843,451.760284 178.073700,451.954651 
	C175.351151,452.163757 174.457275,450.968231 174.764862,448.004028 
z"/>
<path fill="#595959" opacity="1.000000" stroke="none" 
	d="
M291.186035,443.086792 
	C291.186096,440.302124 291.186096,438.003326 291.186096,435.375214 
	C294.148895,435.375214 296.719421,435.375214 299.835358,435.375214 
	C299.835358,445.701935 299.835358,456.087646 299.835358,466.913635 
	C305.100708,466.913635 309.852417,466.913635 314.886597,466.913635 
	C314.886597,469.742981 314.886597,472.126404 314.886597,474.764893 
	C307.151184,474.764893 299.549683,474.764893 291.185974,474.764893 
	C291.185974,464.388672 291.185974,453.980682 291.186035,443.086792 
z"/>
<path fill="#5C5C5C" opacity="1.000000" stroke="none" 
	d="
M219.090149,147.878906 
	C221.448669,150.251038 223.689987,152.260071 225.589905,154.552109 
	C226.235504,155.330978 226.020401,156.823303 226.198608,157.989609 
	C225.035645,157.947449 223.423767,158.385483 222.782120,157.785660 
	C218.417648,153.705658 214.130341,149.520416 210.158707,145.065506 
	C209.508789,144.336517 210.009933,141.628891 210.887894,140.655258 
	C214.664001,136.467545 218.956223,132.740952 222.673264,128.506516 
	C223.946060,127.056557 224.790421,124.545029 224.605270,122.637421 
	C224.162323,118.073212 225.601990,114.747772 229.630539,112.793144 
	C233.459732,110.935242 237.155640,111.600571 240.093292,114.720337 
	C242.868576,117.667686 243.403534,121.226784 241.573746,124.848145 
	C239.544968,128.863358 236.122131,130.223007 231.645538,129.885223 
	C229.852142,129.749893 227.541565,130.286392 226.206833,131.402557 
	C222.040070,134.886978 218.226868,138.794205 213.191742,143.565598 
	C215.615219,145.308243 217.227264,146.467422 219.090149,147.878906 
z"/>
<path fill="#5A5A5A" opacity="1.000000" stroke="none" 
	d="
M378.410461,450.726807 
	C378.021484,450.243408 378.033997,449.956360 378.048767,449.453735 
	C381.987701,444.815033 385.919159,440.391663 390.872803,434.818176 
	C391.250549,438.766418 391.486542,441.233002 391.741577,443.898529 
	C394.399841,444.040710 396.849304,444.171722 399.617126,444.319763 
	C399.617126,446.398285 399.617126,448.319855 399.617126,450.780884 
	C397.240356,450.906311 394.673859,451.041748 391.607880,451.203552 
	C391.607880,453.590088 391.607819,455.704834 391.607910,457.819580 
	C391.608185,466.465820 391.608185,466.465820 399.874054,468.137421 
	C399.874054,470.229858 399.874054,472.350342 399.874054,474.440521 
	C387.766357,476.530365 383.096588,472.706360 383.077484,460.849976 
	C383.072662,457.856537 383.076721,454.863129 383.076721,451.358307 
	C381.602692,451.207794 380.209961,451.065582 378.410461,450.726807 
z"/>
<path fill="#595959" opacity="1.000000" stroke="none" 
	d="
M401.471008,129.812408 
	C396.620422,128.361618 394.014526,125.466515 394.013947,120.672783 
	C394.013458,116.513206 396.317322,113.713371 400.051483,112.382584 
	C403.607880,111.115173 407.221649,111.747078 409.509613,114.874443 
	C410.874542,116.740112 412.344147,119.741600 411.748932,121.578789 
	C410.474182,125.513351 412.446411,127.374786 414.748901,129.593155 
	C418.342560,133.055496 421.768768,136.692245 425.380035,140.135468 
	C427.422058,142.082489 427.981781,143.785492 425.704132,145.975204 
	C421.747772,149.778870 418.015869,153.821716 413.961029,157.512924 
	C413.045471,158.346390 411.190979,158.148407 409.768677,158.425232 
	C410.113037,157.145737 410.068329,155.500168 410.868561,154.649658 
	C414.484985,150.806213 418.340393,147.187653 422.580658,143.025848 
	C417.897369,138.492157 413.868134,134.016098 409.187653,130.377838 
	C407.584320,129.131546 404.349884,129.983597 401.471008,129.812408 
z"/>
<path fill="#5B5B5B" opacity="1.000000" stroke="none" 
	d="
M432.518555,169.566589 
	C434.299194,167.790680 435.736359,166.163269 437.372711,164.769775 
	C439.554169,162.912094 440.527588,161.062088 439.764496,157.927216 
	C438.752533,153.769989 440.779602,150.329819 444.588776,148.550552 
	C448.317017,146.809082 452.073547,147.268448 455.074341,150.431686 
	C458.058044,153.576935 458.510498,157.284012 456.429413,160.960022 
	C454.377655,164.584305 451.083679,165.941147 446.775085,165.593811 
	C444.860046,165.439438 442.432495,166.234879 440.932648,167.454147 
	C437.732330,170.055939 435.087097,173.330521 431.986023,176.070999 
	C431.146393,176.812973 429.490112,176.630814 428.208679,176.872833 
	C428.506500,175.578476 428.528290,174.119873 429.174896,173.033020 
	C429.914764,171.789368 431.209869,170.876053 432.518555,169.566589 
z"/>
<path fill="#595959" opacity="1.000000" stroke="none" 
	d="
M180.813354,151.006378 
	C184.387192,147.372940 188.282745,146.505966 192.380630,148.860336 
	C196.458160,151.202972 197.654388,154.887589 196.611282,159.558060 
	C196.341461,160.766190 197.255905,162.606506 198.192078,163.647812 
	C201.081375,166.861557 204.339752,169.743484 207.228607,172.957550 
	C207.896271,173.700378 207.663177,175.252838 207.844604,176.432739 
	C206.683838,176.278076 205.231552,176.506912 204.421387,175.891037 
	C202.583038,174.493576 201.079407,172.661118 199.405975,171.040314 
	C196.098801,167.837143 193.701050,164.355118 187.489197,165.349884 
	C180.583954,166.455704 177.156021,158.591873 180.813354,151.006378 
z"/>
<path fill="#555555" opacity="1.000000" stroke="none" 
	d="
M159.997345,471.787109 
	C159.996384,462.493134 159.996384,453.680695 159.996384,444.506042 
	C162.639984,444.506042 165.033524,444.506042 167.832642,444.506042 
	C167.832642,454.466248 167.832642,464.491302 167.832642,475.099762 
	C165.209396,473.601379 161.150757,477.931702 159.997345,471.787109 
z"/>
<path fill="#5C5C5C" opacity="1.000000" stroke="none" 
	d="
M164.029510,440.095856 
	C156.713257,440.109009 161.349457,435.299622 159.905212,432.573853 
	C162.890915,432.573853 165.281418,432.573853 168.198013,432.573853 
	C167.058533,435.459473 171.300262,440.198730 164.029510,440.095856 
z"/>
<path fill="#F1F1F1" opacity="1.000000" stroke="none" 
	d="
M128.527740,464.290985 
	C126.106529,457.776489 127.910027,453.156128 133.142578,451.574799 
	C137.713715,450.193329 142.350769,452.731750 143.545517,457.431732 
	C144.553970,461.398743 143.322510,464.785065 139.782944,466.797943 
	C135.660233,469.142426 131.834869,468.334534 128.527740,464.290985 
z"/>
<path fill="#F1F1F1" opacity="1.000000" stroke="none" 
	d="
M460.544434,453.864441 
	C465.899323,449.046631 470.326813,449.699921 473.920380,456.110962 
	C469.387299,456.110962 465.218384,456.146149 461.053711,456.029419 
	C460.785248,456.021881 460.549652,454.842712 460.544434,453.864441 
z"/>
<path fill="#F1F1F1" opacity="1.000000" stroke="none" 
	d="
M222.809082,451.767395 
	C223.738358,452.557129 224.377197,453.094025 224.882507,453.736023 
	C225.264099,454.220795 225.474991,454.839905 226.001038,455.865540 
	C221.163544,455.865540 216.809341,455.865540 212.457077,455.865540 
	C213.512024,450.980499 216.060913,449.876923 222.809082,451.767395 
z"/>
<path fill="#F1F1F1" opacity="1.000000" stroke="none" 
	d="
M328.875427,453.992798 
	C332.735199,450.523163 336.673279,450.137878 340.367249,453.167175 
	C343.721283,455.917725 343.965454,459.777618 342.275238,463.568695 
	C340.645233,467.224640 337.429291,468.441528 333.644501,467.888397 
	C327.608154,467.006165 325.402893,460.899139 328.875427,453.992798 
z"/>
</svg>